PathFileType	4	(X/Y/Z)	..\data\2014029\dynamic\2014029_C4_05.trc
DataRate	CameraRate	NumFrames	NumMarkers	Units	OrigDataRate	OrigDataStartFrame	OrigNumFrames
100.000000	100.000000	4	52	mm	100.000000	121	194
Frame#	Time	L_IAS			L_IPS			R_IPS			R_IAS			L_FTC			L_FLE			L_FME			L_FAX			L_TTC			L_FAL			L_TAM			L_FCC			L_FM1			L_FM2			L_FM5			R_FTC			R_FLE			R_FME			R_FAX			R_TTC			R_FAL			R_TAM			R_FCC			R_FM1			R_FM2			R_FM5			CV7			TV10			SXS			SJN			L_SIA			L_SRS			L_SAA			L_SAE			L_HLE			L_HME			L_UOA			L_RSP			L_UHE			L_HM2			L_HM5			R_SIA			R_SRS			R_SAA			R_SAE			R_HLE			R_HME			R_UOA			R_RSP			R_UHE			R_HM2			R_HM5			
		X1	Y1	Z1	X2	Y2	Z2	X3	Y3	Z3	X4	Y4	Z4	X5	Y5	Z5	X6	Y6	Z6	X7	Y7	Z7	X8	Y8	Z8	X9	Y9	Z9	X10	Y10	Z10	X11	Y11	Z11	X12	Y12	Z12	X13	Y13	Z13	X14	Y14	Z14	X15	Y15	Z15	X16	Y16	Z16	X17	Y17	Z17	X18	Y18	Z18	X19	Y19	Z19	X20	Y20	Z20	X21	Y21	Z21	X22	Y22	Z22	X23	Y23	Z23	X24	Y24	Z24	X25	Y25	Z25	X26	Y26	Z26	X27	Y27	Z27	X28	Y28	Z28	X29	Y29	Z29	X30	Y30	Z30	X31	Y31	Z31	X32	Y32	Z32	X33	Y33	Z33	X34	Y34	Z34	X35	Y35	Z35	X36	Y36	Z36	X37	Y37	Z37	X38	Y38	Z38	X39	Y39	Z39	X40	Y40	Z40	X41	Y41	Z41	X42	Y42	Z42	X43	Y43	Z43	X44	Y44	Z44	X45	Y45	Z45	X46	Y46	Z46	X47	Y47	Z47	X48	Y48	Z48	X49	Y49	Z49	X50	Y50	Z50	X51	Y51	Z51	X52	Y52	Z52	

122	1.21	1119.32568359375	1027.447143554688	-334.2822875976563	907.9254150390627	1023.918518066406	-279.9671630859376	901.2232055664065	1032.96533203125	-180.3370666503907	1095.792724609375	1040.872436523438	-84.67040252685548	1054.524658203125	930.5689697265627	-407.8036193847657	1200.236694335938	507.6597290039064	-382.5798645019532	1215.872314453125	483.9965820312501	-257.3122558593751	1211.56787109375	442.3978881835939	-390.1253662109376	1280.511596679688	461.5901184082032	-331.1605224609376	1359.934814453125	95.90334320068361	-368.0805969238282	1395.917724609375	127.5718154907227	-275.4274902343751	1351.690551757813	20.08576774597168	-312.6958618164063	1546.670043945313	113.8378143310547	-301.7339782714844	1529.10791015625	116.075424194336	-345.0184936523438	1496.513916015625	71.40599060058595	-394.2004699707032	967.7214965820315	938.6194458007815	-32.66231918334962	893.6718750000002	510.3059387207032	-69.76002502441408	889.1590576171877	493.7531738281251	-198.3170928955079	853.3029785156252	449.9599914550782	-70.12286376953126	924.6058349609377	428.8932495117189	-126.6446914672852	736.6309204101564	99.13435363769534	-140.2846374511719	768.6336059570315	107.8107299804688	-239.1609802246094	677.7949829101564	51.814266204834	-189.2352294921875	893.4006347656252	19.49175643920899	-215.9050598144532	891.990173339844	35.73017883300782	-154.6012420654297	851.251159667969	15.66023921966553	-100.1173324584961	1001.544555664063	1563.558227539063	-235.430648803711	904.4206542968752	1303.730712890625	-225.8309173583985	1156.4296875	1265.553833007813	-226.6820526123047	1126.291015625	1460.169311523438	-234.5153198242188	873.0446777343752	1339.7080078125	-307.7407836914063	928.280700683594	1490.719970703125	-326.4617309570313	965.6252441406252	1480.054565429688	-436.5194091796876	1020.440124511719	1478.04345703125	-453.4993896484376	902.0711059570315	1138.340087890625	-499.0975036621095	897.9114990234377	1138.666625976563	-402.0445861816407	872.8829345703127	1134.958984375	-443.5266418457032	927.396911621094	847.6604003906252	-478.7544555664064	854.5220947265627	881.7324218750002	-520.1492309570314	925.6931152343752	763.3927001953126	-471.3838806152345	829.6885375976565	795.096374511719	-525.2119140625001	886.7502441406252	1347.0625	-124.8687057495117	936.6062011718752	1490.862915039063	-128.2892303466797	988.5687255859377	1496.74560546875	-19.6839828491211	1040.431884765625	1500.869384765625	-12.10337924957276	1012.964172363281	1152.820556640625	86.4664764404297	994.319274902344	1126.404052734375	-1.45934545993805	983.866882324219	1124.459228515625	58.123348236084	1213.162963867188	941.6223144531252	63.9787940979004	1137.059692382813	917.405944824219	109.1367645263672	1273.3486328125	873.4185180664065	70.03665924072267	1172.156127929688	833.7808837890627	116.4168472290039	
123	1.22	1130.917358398438	1025.931884765625	-334.6497802734376	919.4478759765627	1022.227478027344	-280.9539489746094	912.4539794921877	1031.573852539063	-181.350326538086	1106.686157226563	1039.80859375	-84.96741485595705	1066.36474609375	928.9415283203127	-408.3514099121095	1212.504028320313	506.5815429687501	-382.1324768066407	1228.588745117188	483.4584350585939	-256.8145751953126	1223.900146484375	441.1173400878907	-389.6599426269532	1292.5498046875	460.7288513183595	-330.5696411132813	1372.483642578125	94.86135864257814	-367.0928039550782	1408.167602539063	126.7164764404297	-274.3520202636719	1364.106811523438	19.18837356567383	-311.6529235839844	1559.037719726563	113.6111373901367	-299.7312011718751	1541.84423828125	115.4988861083985	-343.2396240234376	1509.640502929688	70.33396911621095	-392.2818908691407	977.9334106445315	937.932312011719	-33.19097900390626	901.1793212890627	510.4230041503907	-69.7504119873047	897.0133056640627	493.7725219726564	-198.4094543457032	860.2027587890627	450.5430603027345	-70.02272033691408	931.1114501953127	428.5212707519532	-126.558952331543	738.0128173828126	101.5072631835938	-139.5289001464844	769.873474121094	109.6574859619141	-238.5429077148438	678.3063964843751	55.13601684570314	-188.3216400146485	893.3232421875002	19.52429580688477	-215.9908752441407	892.1129150390627	35.85813140869141	-154.6058807373047	851.3773193359377	15.93159294128418	-100.1136932373047	1012.482604980469	1562.066650390625	-236.9007873535157	915.3773193359377	1302.260498046875	-227.2686157226563	1167.814453125	1264.208618164063	-227.3480834960938	1137.298217773438	1458.819702148438	-235.759994506836	884.3432617187502	1337.640258789063	-308.9768981933594	939.2996215820315	1488.805297851563	-327.8513183593751	976.5652465820315	1478.10986328125	-437.7271423339845	1031.36474609375	1476.236694335938	-454.8573303222657	912.5660400390627	1136.790283203125	-500.3520507812501	908.6682128906252	1136.936645507813	-403.2891540527345	883.5146484375002	1133.480224609375	-444.6969299316407	936.3430786132815	846.0078735351565	-480.5998535156251	863.441101074219	880.556335449219	-521.7149047851564	933.6099243164065	761.6340942382814	-472.9571838378907	837.9682617187502	794.1350708007815	-526.7803344726564	897.6316528320315	1345.5126953125	-126.5398483276367	947.322692871094	1489.452514648438	-129.970687866211	998.3937988281252	1495.757690429688	-21.6616497039795	1050.797241210938	1499.693115234375	-13.47979354858399	1023.325134277344	1151.66845703125	85.30360412597658	1004.945922851563	1125.166748046875	-2.663296699523926	994.3252563476565	1123.2607421875	56.89707946777345	1223.757202148438	940.6843261718752	63.31643295288087	1147.652709960938	916.3892211914065	108.3428421020508	1284.052612304688	872.613952636719	69.57611083984376	1182.815551757813	832.8557739257815	115.8063278198242	
124	1.23	1142.652099609375	1024.698364257813	-335.1017150878907	931.1536254882815	1020.692138671875	-281.9088745117188	923.8960571289065	1030.276611328125	-182.3236541748047	1117.834228515625	1038.820678710938	-85.32006072998048	1078.35888671875	927.6258544921877	-408.9569396972657	1225.170532226563	505.771453857422	-381.6322021484376	1241.790283203125	483.2234802246095	-256.3034057617188	1236.408325195313	440.0470275878907	-389.1558837890626	1304.780151367188	459.807830810547	-329.9256591796876	1383.144775390625	93.31869506835939	-366.0362243652344	1418.743041992188	125.0160140991211	-273.1786193847657	1374.028198242188	18.04657745361328	-310.5874328613282	1569.561401367188	111.5159072875977	-297.9782104492188	1552.620483398438	113.3053817749024	-341.6360168457032	1520.390380859375	67.9691619873047	-390.5369262695314	988.4360961914065	937.2730102539065	-33.81024932861329	909.002380371094	510.6353454589845	-69.80894470214845	905.119079589844	493.8623046875001	-198.6163482666016	867.4295654296877	451.221160888672	-69.96396636962892	937.8867187500002	428.2247924804689	-126.5686721801758	739.5519409179689	104.1135330200196	-138.6544342041016	771.152282714844	111.7445297241211	-237.7880859375001	678.9009399414064	58.75100326538087	-187.2013092041016	893.301208496094	19.58000946044922	-216.0733184814454	892.3057250976565	36.03008270263673	-154.5850982666016	851.608093261719	16.26212501525879	-100.0806732177735	1023.521179199219	1560.717163085938	-238.4739532470704	926.5147705078127	1300.89892578125	-228.682846069336	1179.344482421875	1263.02587890625	-228.1273345947266	1148.420776367188	1457.62548828125	-237.1119079589844	895.766540527344	1335.703735351563	-310.2677307128907	950.4136352539065	1487.023315429688	-329.3410339355469	987.6125488281252	1476.276000976563	-439.0550842285157	1042.399658203125	1474.537963867188	-456.3121032714845	923.3601074218752	1135.287109375	-501.7539062500001	919.6887817382815	1135.236938476563	-404.6856689453126	894.4421386718752	1132.015380859375	-446.0283203125001	945.9141845703127	844.4288330078127	-482.6343383789064	872.9116210937502	879.362243652344	-523.4221191406251	942.3101196289065	759.9525756835939	-474.8208312988282	846.965759277344	793.147155761719	-528.5436401367189	908.6574707031252	1344.086669921875	-128.2876434326172	958.1624145507815	1488.185668945313	-131.7482147216797	1008.323608398438	1494.88232421875	-23.78943252563477	1061.289184570313	1498.662963867188	-14.96441745758057	1033.658813476563	1150.648193359375	83.95906829833986	1015.582092285156	1124.089233398438	-4.069160461425782	1004.749633789063	1122.228271484375	55.46931457519533	1234.04541015625	939.6025390625002	62.58190155029298	1157.883178710938	915.3127441406252	107.3976821899414	1294.3505859375	871.545104980469	69.06990814208986	1192.946899414063	831.8193969726565	115.0302963256836	
125	1.24	1154.573608398438	1023.776550292969	-335.6265869140626	943.0698242187502	1019.349792480469	-282.8403320312501	935.5791015625002	1029.098388671875	-183.2633514404297	1129.264282226563	1037.92724609375	-85.72364807128908	1090.553588867188	926.656188964844	-409.6126403808595	1238.099853515625	505.1915588378907	-381.1064758300782	1255.247924804688	483.2180175781251	-255.8043518066407	1249.00341796875	439.162078857422	-388.6369628906251	1317.086181640625	458.8477783203126	-329.2144775390626	1392.180786132813	91.36609649658205	-364.9238281250001	1427.834716796875	122.5764083862305	-271.9021301269532	1381.709594726563	16.76214790344239	-309.5385131835938	1578.466552734375	107.6611251831055	-296.4194335937501	1561.6787109375	109.6067199707032	-340.1579589843751	1529.02197265625	64.44549560546876	-388.9543457031251	999.2554931640627	936.6510009765627	-34.52754592895509	917.1658935546877	510.954315185547	-69.96582031250001	913.505554199219	494.0339355468751	-198.9622497558594	874.9968872070315	452.0095825195314	-69.98314666748048	944.9607543945315	428.0100097656251	-126.696891784668	741.2737426757814	106.9701232910157	-137.6956329345703	772.5147094726565	114.0821609497071	-236.9217681884766	679.6111450195314	62.68116378784181	-185.9100341796875	893.3448486328127	19.63454627990723	-216.1438293457032	892.571472167969	36.23399734497071	-154.5395965576172	851.9458618164065	16.64998245239258	-100.020492553711	1034.659912109375	1559.538330078125	-240.1556396484376	937.8460083007815	1299.6689453125	-230.0757446289063	1191.021240234375	1262.041381835938	-229.0260314941407	1159.662353515625	1456.616943359375	-238.5753479003907	907.3184204101565	1333.928588867188	-311.6139831542969	961.6264648437502	1485.402709960938	-330.9335327148438	998.7696533203127	1474.576538085938	-440.5096130371095	1053.548583984375	1472.968872070313	-457.8665466308595	934.4675292968752	1133.850341796875	-503.2984008789064	930.9790649414065	1133.591796875	-406.2303466796876	905.6733398437502	1130.586547851563	-447.517059326172	956.1162719726565	842.9410400390627	-484.837127685547	882.9512329101565	878.1690673828127	-525.2687988281251	951.8270263671877	758.3680419921876	-476.9680786132814	856.7033691406252	792.1477050781252	-530.5063476562501	919.8361816406252	1342.807006835938	-130.1093902587891	969.1296997070315	1487.088256835938	-133.6187591552735	1018.418395996094	1494.127075195313	-26.02678871154786	1071.922729492188	1497.801879882813	-16.55970764160157	1043.965576171875	1149.788696289063	82.43569183349611	1026.220825195313	1123.196166992188	-5.669852733612061	1015.137817382813	1121.390380859375	53.84524536132814	1244.021850585938	938.4007568359377	61.77184295654298	1167.74365234375	914.2026367187502	106.3036193847657	1304.234130859375	870.240173339844	68.51476287841798	1202.55126953125	830.6977539062502	114.0960540771485	
